<?xml version="1.0" encoding="UTF-8" standalone="no"?>
<svg
   xmlns:dc="http://purl.org/dc/elements/1.1/"
   xmlns:cc="http://creativecommons.org/ns#"
   xmlns:rdf="http://www.w3.org/1999/02/22-rdf-syntax-ns#"
   xmlns:svg="http://www.w3.org/2000/svg"
   xmlns="http://www.w3.org/2000/svg"
   xmlns:sodipodi="http://sodipodi.sourceforge.net/DTD/sodipodi-0.dtd"
   xmlns:inkscape="http://www.inkscape.org/namespaces/inkscape"
   version="1.1"
   id="Lager_13"
   x="0px"
   y="0px"
   viewBox="0 0 256 256"
   style="enable-background:new 0 0 256 256;"
   xml:space="preserve"
   sodipodi:docname="logistics_vetor.svg"
   inkscape:version="1.0.2-2 (e86c870879, 2021-01-15)"><metadata
   id="metadata861"><rdf:RDF><cc:Work
       rdf:about=""><dc:format>image/svg+xml</dc:format><dc:type
         rdf:resource="http://purl.org/dc/dcmitype/StillImage" /><dc:title /></cc:Work></rdf:RDF></metadata><defs
   id="defs859" /><sodipodi:namedview
   pagecolor="#ffffff"
   bordercolor="#666666"
   borderopacity="1"
   objecttolerance="10"
   gridtolerance="10"
   guidetolerance="10"
   inkscape:pageopacity="0"
   inkscape:pageshadow="2"
   inkscape:window-width="1920"
   inkscape:window-height="1017"
   id="namedview857"
   showgrid="false"
   inkscape:zoom="2.225319"
   inkscape:cx="183.34037"
   inkscape:cy="105.00246"
   inkscape:window-x="1912"
   inkscape:window-y="-8"
   inkscape:window-maximized="1"
   inkscape:current-layer="Lager_13"
   inkscape:document-rotation="0" />

<rect
   style="fill:#97999b;fill-opacity:1;stroke-width:0.801118"
   id="rect867"
   width="4.807878"
   height="255.82771"
   x="-0.024261856"
   y="0.14614779" /><rect
   style="fill:#97999b;fill-opacity:0.40000001"
   id="rect869"
   width="251.15024"
   height="38.353306"
   x="4.7836161"
   y="0.14614779" /><g
   aria-label="Logistics"
   transform="scale(1.0317834,0.96919566)"
   id="text865"
   style="font-style:normal;font-weight:normal;font-size:27.803px;line-height:1.25;font-family:sans-serif;fill:#041e42;fill-opacity:1;stroke:none;stroke-width:0.695075"><path
     d="m 65.762316,11.379642 h 2.50227 v 17.599299 h 10.592943 v 2.140831 H 65.762316 Z"
     style="font-style:normal;font-variant:normal;font-weight:normal;font-stretch:normal;font-family:'Scania Sans CY';-inkscape-font-specification:'Scania Sans CY';fill:#041e42;fill-opacity:1;stroke-width:0.695075"
     id="path3449" /><path
     d="m 87.921274,31.536817 q -2.196437,0 -3.809011,-0.973105 -1.612574,-1.000908 -2.474467,-2.724694 -0.861893,-1.751589 -0.861893,-4.003632 0,-2.252043 0.861893,-4.003632 0.861893,-1.751589 2.474467,-2.724694 1.612574,-1.000908 3.809011,-1.000908 2.168634,0 3.781208,1.000908 1.612574,0.973105 2.474467,2.724694 0.861893,1.751589 0.861893,4.003632 0,2.252043 -0.861893,4.003632 -0.861893,1.723786 -2.474467,2.724694 -1.612574,0.973105 -3.781208,0.973105 z m 0,-2.057422 q 2.168634,0 3.391966,-1.417953 1.251135,-1.417953 1.251135,-3.920223 V 23.50175 q 0,-2.50227 -1.251135,-3.920223 -1.223332,-1.417953 -3.391966,-1.417953 -2.168634,0 -3.419769,1.417953 -1.251135,1.417953 -1.251135,3.920223 v 0.639469 q 0,2.50227 1.251135,3.920223 1.251135,1.417953 3.419769,1.417953 z"
     style="font-style:normal;font-variant:normal;font-weight:normal;font-stretch:normal;font-family:'Scania Sans CY';-inkscape-font-specification:'Scania Sans CY';fill:#041e42;fill-opacity:1;stroke-width:0.695075"
     id="path3451" /><path
     d="m 111.60939,16.551 v 14.012712 q 0,2.752497 -1.66818,4.253859 -1.64038,1.529165 -4.92113,1.529165 -2.97492,0 -4.72651,-1.139923 -1.723787,-1.11212 -1.946211,-3.169542 h 2.613481 q 0.25023,1.056514 1.22333,1.695983 1.00091,0.639469 2.86371,0.639469 4.17045,0 4.17045,-3.809011 v -1.584771 q -1.69598,2.001816 -4.6431,2.001816 -2.02962,0 -3.53098,-0.945302 -1.501362,-0.973105 -2.307649,-2.641285 -0.806287,-1.695983 -0.806287,-3.836814 0,-2.168634 0.806287,-3.836814 0.806287,-1.695983 2.307649,-2.641285 1.50136,-0.973105 3.53098,-0.973105 1.55697,0 2.7803,0.583863 1.22333,0.55606 2.02962,1.612574 V 16.551 Z m -6.67272,12.400138 q 1.91841,0 3.11394,-1.139923 1.19552,-1.139923 1.19552,-2.947118 v -2.669088 q 0,-1.862801 -1.19552,-2.947118 -1.16773,-1.11212 -3.11394,-1.11212 -2.11303,0 -3.33636,1.39015 -1.19553,1.39015 -1.19553,3.697799 v 0.611666 q 0,2.307649 1.19553,3.725602 1.22333,1.39015 3.33636,1.39015 z"
     style="font-style:normal;font-variant:normal;font-weight:normal;font-stretch:normal;font-family:'Scania Sans CY';-inkscape-font-specification:'Scania Sans CY';fill:#041e42;fill-opacity:1;stroke-width:0.695075"
     id="path3453" /><path
     d="m 116.22468,16.551 h 2.39106 v 14.568772 h -2.39106 z m 0,-5.894236 h 2.39106 v 2.947118 h -2.39106 z"
     style="font-style:normal;font-variant:normal;font-weight:normal;font-stretch:normal;font-family:'Scania Sans CY';-inkscape-font-specification:'Scania Sans CY';fill:#041e42;fill-opacity:1;stroke-width:0.695075"
     id="path3455" /><path
     d="m 128.98624,31.56462 q -3.28076,0 -4.92113,-1.306741 -1.61258,-1.306741 -1.66818,-3.558784 h 2.44666 q 0.0834,1.278938 1.11212,2.113028 1.02871,0.806287 3.03053,0.806287 3.7256,0 3.7256,-2.335452 v -0.194621 q 0,-0.889696 -0.61167,-1.306741 -0.61166,-0.444848 -2.14083,-0.778484 l -2.66909,-0.55606 q -2.39105,-0.500454 -3.50317,-1.39015 -1.08432,-0.917499 -1.08432,-2.641285 0,-1.195529 0.69507,-2.168634 0.69508,-0.973105 2.00182,-1.529165 1.30674,-0.583863 3.08613,-0.583863 2.05742,0 3.44757,0.583863 1.41796,0.583863 2.11303,1.556968 0.69508,0.973105 0.72288,2.113028 h -2.39106 q -0.38924,-2.307649 -3.94802,-2.307649 -1.61258,0 -2.47447,0.611666 -0.86189,0.583863 -0.86189,1.529165 v 0.250227 q 0,0.83409 0.63947,1.251135 0.66727,0.417045 2.16863,0.722878 l 2.61348,0.55606 q 2.41886,0.500454 3.50318,1.445756 1.08432,0.945302 1.08432,2.669088 0,2.029619 -1.58477,3.252951 -1.58478,1.195529 -4.53189,1.195529 z"
     style="font-style:normal;font-variant:normal;font-weight:normal;font-stretch:normal;font-family:'Scania Sans CY';-inkscape-font-specification:'Scania Sans CY';fill:#041e42;fill-opacity:1;stroke-width:0.695075"
     id="path3457" /><path
     d="m 142.22045,18.385998 v 7.78484 q 0,1.723786 0.61166,2.391058 0.61167,0.639469 2.05743,0.639469 h 0.9453 v 1.918407 q -0.72288,0.111212 -1.41796,0.111212 -2.41886,0 -3.50317,-1.11212 -1.08432,-1.139923 -1.08432,-3.753405 V 18.385998 H 137.1325 V 16.551 h 2.69689 v -3.753405 h 2.39106 V 16.551 h 3.61439 v 1.834998 z"
     style="font-style:normal;font-variant:normal;font-weight:normal;font-stretch:normal;font-family:'Scania Sans CY';-inkscape-font-specification:'Scania Sans CY';fill:#041e42;fill-opacity:1;stroke-width:0.695075"
     id="path3459" /><path
     d="m 149.61604,16.551 h 2.39105 v 14.568772 h -2.39105 z m 0,-5.894236 h 2.39105 v 2.947118 h -2.39105 z"
     style="font-style:normal;font-variant:normal;font-weight:normal;font-stretch:normal;font-family:'Scania Sans CY';-inkscape-font-specification:'Scania Sans CY';fill:#041e42;fill-opacity:1;stroke-width:0.695075"
     id="path3461" /><path
     d="m 162.82244,31.56462 q -2.11303,0 -3.6978,-0.973105 -1.55697,-1.000908 -2.39106,-2.752497 -0.83409,-1.751589 -0.83409,-4.003632 0,-2.252043 0.83409,-4.003632 0.83409,-1.751589 2.39106,-2.724694 1.58477,-1.000908 3.6978,-1.000908 1.77939,0 3.22515,0.695075 1.44575,0.695075 2.33545,1.918407 0.88969,1.223332 1.05651,2.752497 h -2.44666 q -0.38924,-1.612574 -1.47356,-2.446664 -1.05651,-0.861893 -2.69689,-0.861893 -2.08523,0 -3.28076,1.445756 -1.16772,1.445756 -1.16772,3.89242 v 0.639469 q 0,2.418861 1.16772,3.89242 1.19553,1.473559 3.28076,1.473559 1.66818,0 2.7525,-0.917499 1.11212,-0.917499 1.47355,-2.585679 h 2.47447 q -0.38924,2.585679 -2.16863,4.087041 -1.75159,1.473559 -4.53189,1.473559 z"
     style="font-style:normal;font-variant:normal;font-weight:normal;font-stretch:normal;font-family:'Scania Sans CY';-inkscape-font-specification:'Scania Sans CY';fill:#041e42;fill-opacity:1;stroke-width:0.695075"
     id="path3463" /><path
     d="m 178.72573,31.56462 q -3.28075,0 -4.92113,-1.306741 -1.61257,-1.306741 -1.66818,-3.558784 h 2.44667 q 0.0834,1.278938 1.11212,2.113028 1.02871,0.806287 3.03052,0.806287 3.72561,0 3.72561,-2.335452 v -0.194621 q 0,-0.889696 -0.61167,-1.306741 -0.61167,-0.444848 -2.14083,-0.778484 l -2.66909,-0.55606 q -2.39106,-0.500454 -3.50318,-1.39015 -1.08431,-0.917499 -1.08431,-2.641285 0,-1.195529 0.69507,-2.168634 0.69508,-0.973105 2.00182,-1.529165 1.30674,-0.583863 3.08613,-0.583863 2.05742,0 3.44757,0.583863 1.41796,0.583863 2.11303,1.556968 0.69508,0.973105 0.72288,2.113028 h -2.39106 q -0.38924,-2.307649 -3.94803,-2.307649 -1.61257,0 -2.47446,0.611666 -0.8619,0.583863 -0.8619,1.529165 v 0.250227 q 0,0.83409 0.63947,1.251135 0.66728,0.417045 2.16864,0.722878 l 2.61348,0.55606 q 2.41886,0.500454 3.50318,1.445756 1.08431,0.945302 1.08431,2.669088 0,2.029619 -1.58477,3.252951 -1.58477,1.195529 -4.53189,1.195529 z"
     style="font-style:normal;font-variant:normal;font-weight:normal;font-stretch:normal;font-family:'Scania Sans CY';-inkscape-font-specification:'Scania Sans CY';fill:#041e42;fill-opacity:1;stroke-width:0.695075"
     id="path3465" /></g><g
   id="g870"
   transform="matrix(0.4989451,0,0,0.54757162,64.06996,80.433388)">
	<path
   style="fill:#041e42"
   d="M 198,80 V 35.457 L 196.052,34.49 C 174.763,23.866 151.206,18.25 127.937,18.25 c -23.269,0 -46.765,5.616 -68.055,16.24 L 58,35.457 V 80 H 36 v 35.538 l 1.707,1.026 C 44.218,120.602 51,124.233 58,127.437 V 238 h 28.151 l 8.716,-30 h 66.129 l 8.716,30 H 198 V 127.602 c 7,-3.249 13.828,-6.941 20.321,-11.055 L 220,115.516 V 80 Z M 58,119.698 c -5,-2.455 -10,-5.144 -15,-8.069 V 87 H 58 Z M 191,231 h -16.06 l -8.716,-30 H 89.638 l -8.716,30 H 65 V 130.501 c 3,1.166 5.604,2.26 8.46,3.282 l 15.68,53.294 1.606,0.618 c 9.926,3.784 26.702,6.046 37.193,6.046 10.491,0 27.272,-2.262 37.198,-6.046 l 1.618,-0.618 15.653,-53.075 c 2.88,-1.03 5.592,-2.134 8.592,-3.314 z M 81.491,136.536 c 15.71,4.82 31.643,7.464 46.684,7.464 h 0.243 c 14.88,0 30.53,-2.569 45.891,-7.254 l -13.278,45.017 c -9.31,3.148 -23.796,4.994 -33.099,4.994 -9.303,0 -23.789,-1.869 -33.099,-5.018 z M 191,123.068 C 171,131.958 148.727,137 128.417,137 h -0.243 C 107.813,137 86,131.894 65,122.89 V 87 H 191 Z M 191,80 H 65 V 39.805 c 20,-9.527 41.514,-14.555 63,-14.555 21.487,0 43,5.027 63,14.555 z m 22,31.651 c -5,2.977 -10,5.714 -15,8.204 V 87 h 15 z"
   id="path868" />
</g></svg>
