<?xml version="1.0" encoding="UTF-8" standalone="no"?>
<svg
   xmlns:dc="http://purl.org/dc/elements/1.1/"
   xmlns:cc="http://creativecommons.org/ns#"
   xmlns:rdf="http://www.w3.org/1999/02/22-rdf-syntax-ns#"
   xmlns:svg="http://www.w3.org/2000/svg"
   xmlns="http://www.w3.org/2000/svg"
   xmlns:sodipodi="http://sodipodi.sourceforge.net/DTD/sodipodi-0.dtd"
   xmlns:inkscape="http://www.inkscape.org/namespaces/inkscape"
   version="1.1"
   id="Lager_13"
   x="0px"
   y="0px"
   viewBox="0 0 256 256"
   style="enable-background:new 0 0 256 256;"
   xml:space="preserve"
   sodipodi:docname="maintenance_vetor.svg"
   inkscape:version="1.0.2-2 (e86c870879, 2021-01-15)"><metadata
   id="metadata861"><rdf:RDF><cc:Work
       rdf:about=""><dc:format>image/svg+xml</dc:format><dc:type
         rdf:resource="http://purl.org/dc/dcmitype/StillImage" /><dc:title /></cc:Work></rdf:RDF></metadata><defs
   id="defs859" /><sodipodi:namedview
   pagecolor="#ffffff"
   bordercolor="#666666"
   borderopacity="1"
   objecttolerance="10"
   gridtolerance="10"
   guidetolerance="10"
   inkscape:pageopacity="0"
   inkscape:pageshadow="2"
   inkscape:window-width="1920"
   inkscape:window-height="1017"
   id="namedview857"
   showgrid="false"
   inkscape:zoom="2.225319"
   inkscape:cx="183.34037"
   inkscape:cy="105.00246"
   inkscape:window-x="1912"
   inkscape:window-y="-8"
   inkscape:window-maximized="1"
   inkscape:current-layer="Lager_13"
   inkscape:document-rotation="0" />

<rect
   style="fill:#e1a934;fill-opacity:1;stroke-width:0.801118"
   id="rect867"
   width="4.807878"
   height="255.82771"
   x="-0.024261856"
   y="0.14614779" /><rect
   style="fill:#97999b;fill-opacity:0.40000001"
   id="rect869"
   width="251.15024"
   height="38.353306"
   x="4.7836161"
   y="0.14614779" /><g
   aria-label="Maintenance"
   transform="scale(1.0317834,0.96919566)"
   id="text865"
   style="font-style:normal;font-weight:normal;font-size:27.803px;line-height:1.25;font-family:sans-serif;fill:#041e42;fill-opacity:1;stroke:none;stroke-width:0.695075"><path
     d="m 58.031313,11.379642 v 19.74013 h -2.446664 v -17.51589 l -5.755221,17.51589 h -2.835906 l -5.922039,-17.51589 v 17.51589 h -2.446664 v -19.74013 h 3.948026 l 5.866433,17.460284 5.671812,-17.460284 z"
     style="font-style:normal;font-variant:normal;font-weight:normal;font-stretch:normal;font-family:'Scania Sans CY';-inkscape-font-specification:'Scania Sans CY';fill:#041e42;fill-opacity:1;stroke-width:0.695075"
     id="path4053" /><path
     d="m 68.763263,16.106152 q 2.974921,0 4.559692,1.39015 1.612574,1.362347 1.612574,3.669996 v 9.953474 H 72.62788 v -1.807195 q -0.583863,1.028711 -1.807195,1.640377 -1.195529,0.583863 -3.05833,0.583863 -2.585679,0 -4.142647,-1.11212 -1.529165,-1.11212 -1.529165,-3.308557 0,-2.168634 1.612574,-3.308557 1.612574,-1.167726 4.643101,-1.167726 h 4.198253 v -1.417953 q 0,-1.556968 -1.028711,-2.335452 -1.000908,-0.778484 -2.7803,-0.778484 -1.695983,0 -2.557876,0.667272 -0.861893,0.667272 -1.11212,1.723786 h -2.557876 q 0.305833,-2.113028 1.974013,-3.252951 1.66818,-1.139923 4.281662,-1.139923 z m -0.55606,13.456652 q 1.918407,0 3.113936,-0.917499 1.223332,-0.917499 1.223332,-2.530073 v -1.640377 h -4.142647 q -1.862801,0 -2.863709,0.667272 -0.973105,0.639469 -0.973105,1.723786 v 0.305833 q 0,1.195529 0.945302,1.807195 0.973105,0.583863 2.696891,0.583863 z"
     style="font-style:normal;font-variant:normal;font-weight:normal;font-stretch:normal;font-family:'Scania Sans CY';-inkscape-font-specification:'Scania Sans CY';fill:#041e42;fill-opacity:1;stroke-width:0.695075"
     id="path4055" /><path
     d="m 79.550798,16.551 h 2.391058 v 14.568772 h -2.391058 z m 0,-5.894236 h 2.391058 v 2.947118 h -2.391058 z"
     style="font-style:normal;font-variant:normal;font-weight:normal;font-stretch:normal;font-family:'Scania Sans CY';-inkscape-font-specification:'Scania Sans CY';fill:#041e42;fill-opacity:1;stroke-width:0.695075"
     id="path4057" /><path
     d="m 93.702501,16.106152 q 2.50227,0 4.031435,1.529165 1.556968,1.501362 1.556968,4.114844 v 9.369611 h -2.391058 v -8.646733 q 0,-2.140831 -1.000908,-3.225148 -0.973105,-1.11212 -2.835906,-1.11212 -1.834998,0 -2.835906,1.11212 -1.000908,1.084317 -1.000908,3.225148 v 8.646733 H 86.83516 V 16.551 h 2.279846 v 2.057422 q 0.528257,-1.11212 1.66818,-1.807195 1.167726,-0.695075 2.919315,-0.695075 z"
     style="font-style:normal;font-variant:normal;font-weight:normal;font-stretch:normal;font-family:'Scania Sans CY';-inkscape-font-specification:'Scania Sans CY';fill:#041e42;fill-opacity:1;stroke-width:0.695075"
     id="path4059" /><path
     d="m 106.93664,18.385998 v 7.78484 q 0,1.723786 0.61167,2.391058 0.61166,0.639469 2.05742,0.639469 h 0.9453 v 1.918407 q -0.72288,0.111212 -1.41795,0.111212 -2.41886,0 -3.50318,-1.11212 -1.08432,-1.139923 -1.08432,-3.753405 v -7.979461 h -2.69689 V 16.551 h 2.69689 v -3.753405 h 2.39106 V 16.551 h 3.61439 v 1.834998 z"
     style="font-style:normal;font-variant:normal;font-weight:normal;font-stretch:normal;font-family:'Scania Sans CY';-inkscape-font-specification:'Scania Sans CY';fill:#041e42;fill-opacity:1;stroke-width:0.695075"
     id="path4061" /><path
     d="m 127.06595,24.363643 h -11.64946 q 0.0834,2.391058 1.30674,3.753405 1.25114,1.362347 3.36417,1.362347 3.28075,0 4.28166,-3.002724 h 2.47446 q -0.66727,2.446664 -2.39105,3.753405 -1.69599,1.306741 -4.36507,1.306741 -2.19644,0 -3.80901,-0.973105 -1.61258,-1.000908 -2.47447,-2.724694 -0.86189,-1.751589 -0.86189,-4.003632 0,-2.252043 0.86189,-4.003632 0.86189,-1.751589 2.47447,-2.724694 1.61257,-1.000908 3.80901,-1.000908 2.72469,0 4.47628,1.529165 1.77939,1.501362 2.36325,3.975829 0.13902,0.583863 0.13902,1.556968 z m -6.97855,-6.200069 q -1.94621,0 -3.16955,1.167726 -1.19552,1.139923 -1.44575,3.197345 h 9.20279 q -0.19462,-2.085225 -1.41795,-3.225148 -1.22333,-1.139923 -3.16954,-1.139923 z"
     style="font-style:normal;font-variant:normal;font-weight:normal;font-stretch:normal;font-family:'Scania Sans CY';-inkscape-font-specification:'Scania Sans CY';fill:#041e42;fill-opacity:1;stroke-width:0.695075"
     id="path4063" /><path
     d="m 137.71449,16.106152 q 2.50227,0 4.03144,1.529165 1.55697,1.501362 1.55697,4.114844 v 9.369611 h -2.39106 v -8.646733 q 0,-2.140831 -1.00091,-3.225148 -0.9731,-1.11212 -2.8359,-1.11212 -1.835,0 -2.83591,1.11212 -1.00091,1.084317 -1.00091,3.225148 v 8.646733 h -2.39106 V 16.551 h 2.27985 v 2.057422 q 0.52826,-1.11212 1.66818,-1.807195 1.16773,-0.695075 2.91931,-0.695075 z"
     style="font-style:normal;font-variant:normal;font-weight:normal;font-stretch:normal;font-family:'Scania Sans CY';-inkscape-font-specification:'Scania Sans CY';fill:#041e42;fill-opacity:1;stroke-width:0.695075"
     id="path4065" /><path
     d="m 153.58996,16.106152 q 2.97493,0 4.5597,1.39015 1.61257,1.362347 1.61257,3.669996 v 9.953474 h -2.30765 v -1.807195 q -0.58386,1.028711 -1.80719,1.640377 -1.19553,0.583863 -3.05833,0.583863 -2.58568,0 -4.14265,-1.11212 -1.52917,-1.11212 -1.52917,-3.308557 0,-2.168634 1.61258,-3.308557 1.61257,-1.167726 4.6431,-1.167726 h 4.19825 v -1.417953 q 0,-1.556968 -1.02871,-2.335452 -1.00091,-0.778484 -2.7803,-0.778484 -1.69598,0 -2.55787,0.667272 -0.8619,0.667272 -1.11212,1.723786 h -2.55788 q 0.30583,-2.113028 1.97401,-3.252951 1.66818,-1.139923 4.28166,-1.139923 z m -0.55606,13.456652 q 1.91841,0 3.11394,-0.917499 1.22333,-0.917499 1.22333,-2.530073 v -1.640377 h -4.14264 q -1.86281,0 -2.86371,0.667272 -0.97311,0.639469 -0.97311,1.723786 v 0.305833 q 0,1.195529 0.9453,1.807195 0.97311,0.583863 2.69689,0.583863 z"
     style="font-style:normal;font-variant:normal;font-weight:normal;font-stretch:normal;font-family:'Scania Sans CY';-inkscape-font-specification:'Scania Sans CY';fill:#041e42;fill-opacity:1;stroke-width:0.695075"
     id="path4067" /><path
     d="m 171.24484,16.106152 q 2.50227,0 4.03144,1.529165 1.55697,1.501362 1.55697,4.114844 v 9.369611 h -2.39106 v -8.646733 q 0,-2.140831 -1.00091,-3.225148 -0.9731,-1.11212 -2.8359,-1.11212 -1.835,0 -2.83591,1.11212 -1.00091,1.084317 -1.00091,3.225148 v 8.646733 H 164.3775 V 16.551 h 2.27985 v 2.057422 q 0.52826,-1.11212 1.66818,-1.807195 1.16773,-0.695075 2.91931,-0.695075 z"
     style="font-style:normal;font-variant:normal;font-weight:normal;font-stretch:normal;font-family:'Scania Sans CY';-inkscape-font-specification:'Scania Sans CY';fill:#041e42;fill-opacity:1;stroke-width:0.695075"
     id="path4069" /><path
     d="m 187.37053,31.56462 q -2.11302,0 -3.6978,-0.973105 -1.55696,-1.000908 -2.39105,-2.752497 -0.83409,-1.751589 -0.83409,-4.003632 0,-2.252043 0.83409,-4.003632 0.83409,-1.751589 2.39105,-2.724694 1.58478,-1.000908 3.6978,-1.000908 1.7794,0 3.22515,0.695075 1.44576,0.695075 2.33545,1.918407 0.8897,1.223332 1.05652,2.752497 h -2.44667 q -0.38924,-1.612574 -1.47356,-2.446664 -1.05651,-0.861893 -2.69689,-0.861893 -2.08522,0 -3.28075,1.445756 -1.16773,1.445756 -1.16773,3.89242 v 0.639469 q 0,2.418861 1.16773,3.89242 1.19553,1.473559 3.28075,1.473559 1.66818,0 2.7525,-0.917499 1.11212,-0.917499 1.47356,-2.585679 h 2.47447 q -0.38925,2.585679 -2.16864,4.087041 -1.75159,1.473559 -4.53189,1.473559 z"
     style="font-style:normal;font-variant:normal;font-weight:normal;font-stretch:normal;font-family:'Scania Sans CY';-inkscape-font-specification:'Scania Sans CY';fill:#041e42;fill-opacity:1;stroke-width:0.695075"
     id="path4071" /><path
     d="m 210.8084,24.363643 h -11.64945 q 0.0834,2.391058 1.30674,3.753405 1.25113,1.362347 3.36416,1.362347 3.28075,0 4.28166,-3.002724 h 2.47447 q -0.66727,2.446664 -2.39106,3.753405 -1.69598,1.306741 -4.36507,1.306741 -2.19644,0 -3.80901,-0.973105 -1.61257,-1.000908 -2.47447,-2.724694 -0.86189,-1.751589 -0.86189,-4.003632 0,-2.252043 0.86189,-4.003632 0.8619,-1.751589 2.47447,-2.724694 1.61257,-1.000908 3.80901,-1.000908 2.72469,0 4.47628,1.529165 1.7794,1.501362 2.36326,3.975829 0.13901,0.583863 0.13901,1.556968 z m -6.97855,-6.200069 q -1.94621,0 -3.16954,1.167726 -1.19553,1.139923 -1.44576,3.197345 h 9.2028 q -0.19463,-2.085225 -1.41796,-3.225148 -1.22333,-1.139923 -3.16954,-1.139923 z"
     style="font-style:normal;font-variant:normal;font-weight:normal;font-stretch:normal;font-family:'Scania Sans CY';-inkscape-font-specification:'Scania Sans CY';fill:#041e42;fill-opacity:1;stroke-width:0.695075"
     id="path4073" /></g><g
   id="g916"
   transform="matrix(0.58165031,0,0,0.57915263,55.316311,83.395587)">
	<path
   style="fill:#041e42"
   d="m 166.047,143.56 c 2.856,0.399 5.764,0.601 8.648,0.601 16.705,0 32.455,-6.554 44.347,-18.455 15.2,-15.211 21.395,-38.383 16.167,-60.474 l -2.891,-12.215 -8.873,8.879 -37.597,37.624 -21.473,-7.886 -7.909,-21.525 37.617,-37.615 8.589,-8.588 -11.736,-3.126 c -5.294,-1.41 -10.76,-2.125 -16.245,-2.126 -16.738,-0.001 -32.47,6.518 -44.297,18.353 -14.171,14.172 -20.706,33.514 -17.928,53.063 l 0.002,0.011 c 0.07,0.607 1.002,10.43 -10.029,21.469 l -74.873,74.925 c -11.417,11.425 -11.331,30.102 0.192,41.633 5.566,5.57 12.975,8.638 20.862,8.638 7.823,0 15.16,-3.031 20.66,-8.534 l 74.925,-74.873 c 8.843,-8.849 17.643,-9.804 21.017,-9.805 0.427,0 0.712,0.017 0.825,0.026 z m -26.792,4.827 -74.928,74.877 c -4.326,4.329 -10.012,6.482 -15.708,6.482 -5.76,0 -11.532,-2.204 -15.911,-6.586 -8.702,-8.708 -8.894,-23.029 -0.192,-31.737 l 74.872,-74.925 c 14.115,-14.125 12.006,-27.413 12.006,-27.413 -2.384,-16.772 3.055,-34.235 15.949,-47.13 10.874,-10.881 25.102,-16.302 39.346,-16.301 4.857,0 9.717,0.631 14.444,1.89 l -40.781,40.779 10.57,28.765 28.714,10.546 40.762,-40.79 c 4.231,17.878 0.274,39.323 -14.307,53.914 -10.899,10.906 -25.13,16.403 -39.396,16.403 -2.611,0 -5.225,-0.184 -7.819,-0.553 0,0 -0.594,-0.074 -1.657,-0.074 -4.111,0 -15.223,1.104 -25.964,11.853 z"
   id="path910" />
	<path
   style="fill:#041e42"
   d="m 218.066,169 h -39.868 l -19.934,34.5 19.934,34.5 h 39.868 L 238,203.5 Z m -4.041,62 H 182.24 L 166.348,203.5 182.24,176 h 31.785 l 15.892,27.5 z"
   id="path912" />
	<path
   style="fill:#041e42"
   d="m 198.132,189.026 c -7.966,0 -14.447,6.481 -14.447,14.447 0,7.966 6.481,14.447 14.447,14.447 7.966,0 14.447,-6.481 14.447,-14.447 0,-7.966 -6.481,-14.447 -14.447,-14.447 z m 0,21.895 c -4.106,0 -7.447,-3.341 -7.447,-7.447 0,-4.106 3.341,-7.447 7.447,-7.447 4.106,0 7.447,3.341 7.447,7.447 0,4.106 -3.341,7.447 -7.447,7.447 z"
   id="path914" />
</g></svg>
