<?xml version="1.0" encoding="UTF-8" standalone="no"?>
<svg
   xmlns:dc="http://purl.org/dc/elements/1.1/"
   xmlns:cc="http://creativecommons.org/ns#"
   xmlns:rdf="http://www.w3.org/1999/02/22-rdf-syntax-ns#"
   xmlns:svg="http://www.w3.org/2000/svg"
   xmlns="http://www.w3.org/2000/svg"
   xmlns:sodipodi="http://sodipodi.sourceforge.net/DTD/sodipodi-0.dtd"
   xmlns:inkscape="http://www.inkscape.org/namespaces/inkscape"
   version="1.1"
   id="Lager_13"
   x="0px"
   y="0px"
   viewBox="0 0 256 256"
   style="enable-background:new 0 0 256 256;"
   xml:space="preserve"
   sodipodi:docname="network_vetor.svg"
   inkscape:version="1.0.2-2 (e86c870879, 2021-01-15)"><metadata
   id="metadata861"><rdf:RDF><cc:Work
       rdf:about=""><dc:format>image/svg+xml</dc:format><dc:type
         rdf:resource="http://purl.org/dc/dcmitype/StillImage" /><dc:title /></cc:Work></rdf:RDF></metadata><defs
   id="defs859" /><sodipodi:namedview
   pagecolor="#ffffff"
   bordercolor="#666666"
   borderopacity="1"
   objecttolerance="10"
   gridtolerance="10"
   guidetolerance="10"
   inkscape:pageopacity="0"
   inkscape:pageshadow="2"
   inkscape:window-width="1920"
   inkscape:window-height="1017"
   id="namedview857"
   showgrid="false"
   inkscape:zoom="2.225319"
   inkscape:cx="183.34037"
   inkscape:cy="105.00246"
   inkscape:window-x="1912"
   inkscape:window-y="-8"
   inkscape:window-maximized="1"
   inkscape:current-layer="Lager_13"
   inkscape:document-rotation="0" />

<rect
   style="fill:#e1a934;fill-opacity:1;stroke-width:0.801118"
   id="rect867"
   width="4.807878"
   height="255.82771"
   x="-0.024261856"
   y="0.14614779" /><rect
   style="fill:#97999b;fill-opacity:0.40000001"
   id="rect869"
   width="251.15024"
   height="38.353306"
   x="4.7836161"
   y="0.14614779" /><g
   aria-label="Network"
   transform="scale(1.0317834,0.96919566)"
   id="text865"
   style="font-style:normal;font-weight:normal;font-size:27.803px;line-height:1.25;font-family:sans-serif;fill:#041e42;fill-opacity:1;stroke:none;stroke-width:0.695075"><path
     d="m 87.897855,11.379642 v 19.74013 H 84.478086 L 74.024158,13.826306 v 17.293466 h -2.446664 v -19.74013 h 3.503178 L 85.451191,28.534093 V 11.379642 Z"
     style="font-style:normal;font-variant:normal;font-weight:normal;font-stretch:normal;font-family:'Scania Sans CY';-inkscape-font-specification:'Scania Sans CY';fill:#041e42;fill-opacity:1;stroke-width:0.695075"
     id="path4661" /><path
     d="M 106.08101,24.363643 H 94.431549 q 0.08341,2.391058 1.306741,3.753405 1.251135,1.362347 3.364163,1.362347 3.280757,0 4.281657,-3.002724 h 2.47447 q -0.66727,2.446664 -2.39106,3.753405 -1.69598,1.306741 -4.365067,1.306741 -2.196437,0 -3.809011,-0.973105 -1.612574,-1.000908 -2.474467,-2.724694 -0.861893,-1.751589 -0.861893,-4.003632 0,-2.252043 0.861893,-4.003632 0.861893,-1.751589 2.474467,-2.724694 1.612574,-1.000908 3.809011,-1.000908 2.724697,0 4.476287,1.529165 1.77939,1.501362 2.36325,3.975829 0.13902,0.583863 0.13902,1.556968 z m -6.978557,-6.200069 q -1.94621,0 -3.169542,1.167726 -1.195529,1.139923 -1.445756,3.197345 h 9.202795 q -0.19462,-2.085225 -1.41796,-3.225148 -1.22333,-1.139923 -3.169537,-1.139923 z"
     style="font-style:normal;font-variant:normal;font-weight:normal;font-stretch:normal;font-family:'Scania Sans CY';-inkscape-font-specification:'Scania Sans CY';fill:#041e42;fill-opacity:1;stroke-width:0.695075"
     id="path4663" /><path
     d="m 113.19857,18.385998 v 7.78484 q 0,1.723786 0.61166,2.391058 0.61167,0.639469 2.05742,0.639469 h 0.94531 v 1.918407 q -0.72288,0.111212 -1.41796,0.111212 -2.41886,0 -3.50317,-1.11212 -1.08432,-1.139923 -1.08432,-3.753405 v -7.979461 h -2.69689 V 16.551 h 2.69689 v -3.753405 h 2.39106 V 16.551 h 3.61439 v 1.834998 z"
     style="font-style:normal;font-variant:normal;font-weight:normal;font-stretch:normal;font-family:'Scania Sans CY';-inkscape-font-specification:'Scania Sans CY';fill:#041e42;fill-opacity:1;stroke-width:0.695075"
     id="path4665" /><path
     d="m 140.75133,16.551 -4.42068,14.568772 h -3.11393 l -3.25295,-11.871881 -3.28076,11.871881 h -3.11393 L 119.1762,16.551 h 2.55788 l 3.50318,12.51135 3.41977,-12.51135 h 2.69689 l 3.41977,12.51135 3.50317,-12.51135 z"
     style="font-style:normal;font-variant:normal;font-weight:normal;font-stretch:normal;font-family:'Scania Sans CY';-inkscape-font-specification:'Scania Sans CY';fill:#041e42;fill-opacity:1;stroke-width:0.695075"
     id="path4667" /><path
     d="m 150.09309,31.536817 q -2.19644,0 -3.80901,-0.973105 -1.61258,-1.000908 -2.47447,-2.724694 -0.86189,-1.751589 -0.86189,-4.003632 0,-2.252043 0.86189,-4.003632 0.86189,-1.751589 2.47447,-2.724694 1.61257,-1.000908 3.80901,-1.000908 2.16863,0 3.78121,1.000908 1.61257,0.973105 2.47446,2.724694 0.8619,1.751589 0.8619,4.003632 0,2.252043 -0.8619,4.003632 -0.86189,1.723786 -2.47446,2.724694 -1.61258,0.973105 -3.78121,0.973105 z m 0,-2.057422 q 2.16863,0 3.39196,-1.417953 1.25114,-1.417953 1.25114,-3.920223 V 23.50175 q 0,-2.50227 -1.25114,-3.920223 -1.22333,-1.417953 -3.39196,-1.417953 -2.16864,0 -3.41977,1.417953 -1.25114,1.417953 -1.25114,3.920223 v 0.639469 q 0,2.50227 1.25114,3.920223 1.25113,1.417953 3.41977,1.417953 z"
     style="font-style:normal;font-variant:normal;font-weight:normal;font-stretch:normal;font-family:'Scania Sans CY';-inkscape-font-specification:'Scania Sans CY';fill:#041e42;fill-opacity:1;stroke-width:0.695075"
     id="path4669" /><path
     d="m 167.97038,16.384182 q 0.77849,0 1.33455,0.111212 v 2.196437 h -1.33455 q -2.50227,0 -3.50317,1.584771 -0.97311,1.584771 -0.97311,4.504086 v 6.339084 h -2.39106 V 16.551 h 2.27985 v 3.05833 q 0.44485,-1.39015 1.58477,-2.307649 1.13992,-0.917499 3.00272,-0.917499 z"
     style="font-style:normal;font-variant:normal;font-weight:normal;font-stretch:normal;font-family:'Scania Sans CY';-inkscape-font-specification:'Scania Sans CY';fill:#041e42;fill-opacity:1;stroke-width:0.695075"
     id="path4671" /><path
     d="m 177.97944,23.724174 -3.14174,3.280754 v 4.114844 h -2.39106 V 10.656764 h 2.39106 V 24.224628 L 181.95527,16.551 h 2.8359 l -5.22696,5.504994 5.64401,9.063778 h -2.64129 z"
     style="font-style:normal;font-variant:normal;font-weight:normal;font-stretch:normal;font-family:'Scania Sans CY';-inkscape-font-specification:'Scania Sans CY';fill:#041e42;fill-opacity:1;stroke-width:0.695075"
     id="path4673" /></g><g
   id="g878"
   transform="matrix(0.67603804,0,0,0.75710996,43.475718,68.186427)"
   style="fill:#041e42;fill-opacity:1">
	<path
   d="m 127.51,74.995 c 35.192,0 67.206,13.781 90.999,36.198 L 235.166,94.536 C 207.13,67.886 169.245,51.5 127.51,51.5 85.775,51.5 47.89,67.886 19.854,94.535 l 16.657,16.657 C 60.304,88.776 92.319,74.995 127.51,74.995 Z"
   id="path872"
   style="fill:#041e42;fill-opacity:1" />
	<path
   d="m 188.518,141.184 c -16.076,-14.723 -37.49,-23.713 -61.008,-23.713 -23.518,0 -44.932,8.99 -61.008,23.713 l 16.702,16.702 c 11.811,-10.49 27.303,-16.921 44.305,-16.921 17.002,0 32.494,6.431 44.305,16.921 z"
   id="path874"
   style="fill:#041e42;fill-opacity:1" />
	<path
   d="m 109.942,184.624 17.565,17.565 h 0.003 0.003 l 17.565,-17.565 c -4.888,-3.706 -10.961,-5.93 -17.568,-5.93 -6.607,-10e-4 -12.679,2.224 -17.568,5.93 z"
   id="path876"
   style="fill:#041e42;fill-opacity:1" />
</g></svg>
