<?xml version="1.0" encoding="UTF-8" standalone="no"?>
<svg
   xmlns:dc="http://purl.org/dc/elements/1.1/"
   xmlns:cc="http://creativecommons.org/ns#"
   xmlns:rdf="http://www.w3.org/1999/02/22-rdf-syntax-ns#"
   xmlns:svg="http://www.w3.org/2000/svg"
   xmlns="http://www.w3.org/2000/svg"
   xmlns:sodipodi="http://sodipodi.sourceforge.net/DTD/sodipodi-0.dtd"
   xmlns:inkscape="http://www.inkscape.org/namespaces/inkscape"
   version="1.1"
   id="Lager_13"
   x="0px"
   y="0px"
   viewBox="0 0 256 256"
   style="enable-background:new 0 0 256 256;"
   xml:space="preserve"
   sodipodi:docname="productvity_vetor.svg"
   inkscape:version="1.0.2-2 (e86c870879, 2021-01-15)"><metadata
   id="metadata861"><rdf:RDF><cc:Work
       rdf:about=""><dc:format>image/svg+xml</dc:format><dc:type
         rdf:resource="http://purl.org/dc/dcmitype/StillImage" /><dc:title /></cc:Work></rdf:RDF></metadata><defs
   id="defs859" /><sodipodi:namedview
   pagecolor="#ffffff"
   bordercolor="#666666"
   borderopacity="1"
   objecttolerance="10"
   gridtolerance="10"
   guidetolerance="10"
   inkscape:pageopacity="0"
   inkscape:pageshadow="2"
   inkscape:window-width="1920"
   inkscape:window-height="1017"
   id="namedview857"
   showgrid="false"
   inkscape:zoom="2.225319"
   inkscape:cx="183.34037"
   inkscape:cy="105.00246"
   inkscape:window-x="1912"
   inkscape:window-y="-8"
   inkscape:window-maximized="1"
   inkscape:current-layer="Lager_13"
   inkscape:document-rotation="0" />

<rect
   style="fill:#e35205;fill-opacity:1;stroke-width:0.801118"
   id="rect867"
   width="4.807878"
   height="255.82771"
   x="-0.024261856"
   y="0.14614779" /><rect
   style="fill:#97999b;fill-opacity:0.40000001"
   id="rect869"
   width="251.15024"
   height="38.353306"
   x="4.7836161"
   y="0.14614779" /><g
   aria-label="Productivity"
   transform="scale(1.0317834,0.96919566)"
   id="text865"
   style="font-style:normal;font-weight:normal;font-size:27.803px;line-height:1.25;font-family:sans-serif;fill:#041e42;fill-opacity:1;stroke:none;stroke-width:0.695075"><path
     d="m 47.772006,11.379642 q 1.890604,0 3.364163,0.806287 1.473559,0.806287 2.279846,2.22424 0.83409,1.417953 0.83409,3.225148 0,1.779392 -0.83409,3.225148 -0.806287,1.417953 -2.307649,2.22424 -1.473559,0.806287 -3.33636,0.806287 h -6.644917 v 7.22878 h -2.50227 v -19.74013 z m 3.920223,5.949842 q 0,-1.807195 -1.223332,-2.808103 -1.195529,-1.000908 -3.141739,-1.000908 h -6.200069 v 8.229688 h 6.200069 q 1.94621,0 3.141739,-1.000908 1.223332,-1.000908 1.223332,-2.808103 z"
     style="font-style:normal;font-variant:normal;font-weight:normal;font-stretch:normal;font-family:'Scania Sans CY';-inkscape-font-specification:'Scania Sans CY';fill:#041e42;fill-opacity:1;stroke-width:0.695075"
     id="path6484" /><path
     d="m 64.620577,16.384182 q 0.778484,0 1.334544,0.111212 v 2.196437 h -1.334544 q -2.50227,0 -3.503178,1.584771 -0.973105,1.584771 -0.973105,4.504086 v 6.339084 H 57.753236 V 16.551 h 2.279846 v 3.05833 q 0.444848,-1.39015 1.584771,-2.307649 1.139923,-0.917499 3.002724,-0.917499 z"
     style="font-style:normal;font-variant:normal;font-weight:normal;font-stretch:normal;font-family:'Scania Sans CY';-inkscape-font-specification:'Scania Sans CY';fill:#041e42;fill-opacity:1;stroke-width:0.695075"
     id="path6486" /><path
     d="m 74.879842,31.536817 q -2.196437,0 -3.809011,-0.973105 -1.612574,-1.000908 -2.474467,-2.724694 -0.861893,-1.751589 -0.861893,-4.003632 0,-2.252043 0.861893,-4.003632 0.861893,-1.751589 2.474467,-2.724694 1.612574,-1.000908 3.809011,-1.000908 2.168634,0 3.781208,1.000908 1.612574,0.973105 2.474467,2.724694 0.861893,1.751589 0.861893,4.003632 0,2.252043 -0.861893,4.003632 -0.861893,1.723786 -2.474467,2.724694 -1.612574,0.973105 -3.781208,0.973105 z m 0,-2.057422 q 2.168634,0 3.391966,-1.417953 1.251135,-1.417953 1.251135,-3.920223 V 23.50175 q 0,-2.50227 -1.251135,-3.920223 -1.223332,-1.417953 -3.391966,-1.417953 -2.168634,0 -3.419769,1.417953 -1.251135,1.417953 -1.251135,3.920223 v 0.639469 q 0,2.50227 1.251135,3.920223 1.251135,1.417953 3.419769,1.417953 z"
     style="font-style:normal;font-variant:normal;font-weight:normal;font-stretch:normal;font-family:'Scania Sans CY';-inkscape-font-specification:'Scania Sans CY';fill:#041e42;fill-opacity:1;stroke-width:0.695075"
     id="path6488" /><path
     d="m 98.595765,10.656764 v 20.463008 h -2.279846 v -1.862801 q -0.778484,1.11212 -2.001816,1.695983 -1.195529,0.583863 -2.7803,0.583863 -2.029619,0 -3.530981,-0.973105 -1.501362,-0.973105 -2.307649,-2.724694 -0.806287,-1.751589 -0.806287,-4.003632 0,-2.252043 0.806287,-4.003632 0.806287,-1.779392 2.307649,-2.752497 1.501362,-0.973105 3.530981,-0.973105 3.030527,0 4.670904,2.113028 v -7.562416 z m -6.700523,18.850434 q 1.94621,0 3.113936,-1.167726 1.195529,-1.195529 1.195529,-3.113936 V 22.38963 q 0,-1.974013 -1.195529,-3.113936 -1.167726,-1.139923 -3.113936,-1.139923 -2.113028,0 -3.33636,1.445756 -1.195529,1.445756 -1.195529,3.920223 v 0.611666 q 0,2.474467 1.195529,3.948026 1.223332,1.445756 3.33636,1.445756 z"
     style="font-style:normal;font-variant:normal;font-weight:normal;font-stretch:normal;font-family:'Scania Sans CY';-inkscape-font-specification:'Scania Sans CY';fill:#041e42;fill-opacity:1;stroke-width:0.695075"
     id="path6490" /><path
     d="m 115.49997,16.551 v 14.568772 h -2.27984 v -1.94621 q -0.47266,1.056514 -1.61258,1.723786 -1.11212,0.667272 -2.89151,0.667272 -2.53007,0 -4.03144,-1.417953 -1.47355,-1.445756 -1.47355,-4.142647 V 16.551 h 2.39105 v 8.674536 q 0,2.252043 0.8897,3.280754 0.9175,1.028711 2.7525,1.028711 1.75159,0 2.8081,-1.056514 1.05651,-1.056514 1.05651,-3.252951 V 16.551 Z"
     style="font-style:normal;font-variant:normal;font-weight:normal;font-stretch:normal;font-family:'Scania Sans CY';-inkscape-font-specification:'Scania Sans CY';fill:#041e42;fill-opacity:1;stroke-width:0.695075"
     id="path6492" /><path
     d="m 126.31534,31.56462 q -2.11303,0 -3.6978,-0.973105 -1.55697,-1.000908 -2.39106,-2.752497 -0.83409,-1.751589 -0.83409,-4.003632 0,-2.252043 0.83409,-4.003632 0.83409,-1.751589 2.39106,-2.724694 1.58477,-1.000908 3.6978,-1.000908 1.77939,0 3.22514,0.695075 1.44576,0.695075 2.33546,1.918407 0.88969,1.223332 1.05651,2.752497 h -2.44666 q -0.38925,-1.612574 -1.47356,-2.446664 -1.05652,-0.861893 -2.69689,-0.861893 -2.08523,0 -3.28076,1.445756 -1.16772,1.445756 -1.16772,3.89242 v 0.639469 q 0,2.418861 1.16772,3.89242 1.19553,1.473559 3.28076,1.473559 1.66818,0 2.75249,-0.917499 1.11212,-0.917499 1.47356,-2.585679 h 2.47447 q -0.38924,2.585679 -2.16864,4.087041 -1.75158,1.473559 -4.53188,1.473559 z"
     style="font-style:normal;font-variant:normal;font-weight:normal;font-stretch:normal;font-family:'Scania Sans CY';-inkscape-font-specification:'Scania Sans CY';fill:#041e42;fill-opacity:1;stroke-width:0.695075"
     id="path6494" /><path
     d="m 140.0778,18.385998 v 7.78484 q 0,1.723786 0.61167,2.391058 0.61166,0.639469 2.05742,0.639469 h 0.9453 v 1.918407 q -0.72288,0.111212 -1.41795,0.111212 -2.41886,0 -3.50318,-1.11212 -1.08432,-1.139923 -1.08432,-3.753405 v -7.979461 h -2.69689 V 16.551 h 2.69689 v -3.753405 h 2.39106 V 16.551 h 3.61439 v 1.834998 z"
     style="font-style:normal;font-variant:normal;font-weight:normal;font-stretch:normal;font-family:'Scania Sans CY';-inkscape-font-specification:'Scania Sans CY';fill:#041e42;fill-opacity:1;stroke-width:0.695075"
     id="path6496" /><path
     d="m 147.47339,16.551 h 2.39106 v 14.568772 h -2.39106 z m 0,-5.894236 h 2.39106 v 2.947118 h -2.39106 z"
     style="font-style:normal;font-variant:normal;font-weight:normal;font-stretch:normal;font-family:'Scania Sans CY';-inkscape-font-specification:'Scania Sans CY';fill:#041e42;fill-opacity:1;stroke-width:0.695075"
     id="path6498" /><path
     d="m 166.65744,16.551 -5.22697,14.568772 h -3.03052 L 153.17298,16.551 h 2.58568 l 4.19825,12.372335 4.14265,-12.372335 z"
     style="font-style:normal;font-variant:normal;font-weight:normal;font-stretch:normal;font-family:'Scania Sans CY';-inkscape-font-specification:'Scania Sans CY';fill:#041e42;fill-opacity:1;stroke-width:0.695075"
     id="path6500" /><path
     d="m 169.96597,16.551 h 2.39105 v 14.568772 h -2.39105 z m 0,-5.894236 h 2.39105 v 2.947118 h -2.39105 z"
     style="font-style:normal;font-variant:normal;font-weight:normal;font-stretch:normal;font-family:'Scania Sans CY';-inkscape-font-specification:'Scania Sans CY';fill:#041e42;fill-opacity:1;stroke-width:0.695075"
     id="path6502" /><path
     d="m 180.58669,18.385998 v 7.78484 q 0,1.723786 0.61167,2.391058 0.61166,0.639469 2.05742,0.639469 h 0.9453 v 1.918407 q -0.72288,0.111212 -1.41795,0.111212 -2.41886,0 -3.50318,-1.11212 -1.08432,-1.139923 -1.08432,-3.753405 v -7.979461 h -2.69689 V 16.551 h 2.69689 v -3.753405 h 2.39106 V 16.551 h 3.61439 v 1.834998 z"
     style="font-style:normal;font-variant:normal;font-weight:normal;font-stretch:normal;font-family:'Scania Sans CY';-inkscape-font-specification:'Scania Sans CY';fill:#041e42;fill-opacity:1;stroke-width:0.695075"
     id="path6504" /><path
     d="m 199.77075,16.551 -7.4512,19.350888 h -2.44667 L 191.84689,30.813939 186.39751,16.551 h 2.55787 l 4.14265,11.232412 4.25386,-11.232412 z"
     style="font-style:normal;font-variant:normal;font-weight:normal;font-stretch:normal;font-family:'Scania Sans CY';-inkscape-font-specification:'Scania Sans CY';fill:#041e42;fill-opacity:1;stroke-width:0.695075"
     id="path6506" /></g><g
   id="g946"
   transform="matrix(0.65278272,0,0,0.6550975,20.386757,-39.33463)">
	<polygon
   style="fill:#041e42"
   points="38,36 31,36 31,225 220,225 220,218 38,218 "
   id="polygon942"
   transform="translate(44.584678,166.37016)" />
	<polygon
   style="fill:#041e42"
   points="142.599,91.191 113.062,172.986 84.295,137.583 54.87,196.435 61.13,199.565 85.705,150.417 115.438,187.014 144.401,106.809 173.812,152.056 205.329,55.082 198.671,52.918 171.688,135.944 "
   id="polygon944"
   transform="translate(44.584678,166.37016)" />
</g></svg>
