<?xml version="1.0" encoding="UTF-8" standalone="no"?>
<svg
   xmlns:dc="http://purl.org/dc/elements/1.1/"
   xmlns:cc="http://creativecommons.org/ns#"
   xmlns:rdf="http://www.w3.org/1999/02/22-rdf-syntax-ns#"
   xmlns:svg="http://www.w3.org/2000/svg"
   xmlns="http://www.w3.org/2000/svg"
   xmlns:sodipodi="http://sodipodi.sourceforge.net/DTD/sodipodi-0.dtd"
   xmlns:inkscape="http://www.inkscape.org/namespaces/inkscape"
   version="1.1"
   id="Lager_13"
   x="0px"
   y="0px"
   viewBox="0 0 256 256"
   style="enable-background:new 0 0 256 256;"
   xml:space="preserve"
   sodipodi:docname="quality_vetor.svg"
   inkscape:version="1.0.2-2 (e86c870879, 2021-01-15)"><metadata
   id="metadata861"><rdf:RDF><cc:Work
       rdf:about=""><dc:format>image/svg+xml</dc:format><dc:type
         rdf:resource="http://purl.org/dc/dcmitype/StillImage" /><dc:title /></cc:Work></rdf:RDF></metadata><defs
   id="defs859" /><sodipodi:namedview
   pagecolor="#ffffff"
   bordercolor="#666666"
   borderopacity="1"
   objecttolerance="10"
   gridtolerance="10"
   guidetolerance="10"
   inkscape:pageopacity="0"
   inkscape:pageshadow="2"
   inkscape:window-width="1920"
   inkscape:window-height="1017"
   id="namedview857"
   showgrid="false"
   inkscape:zoom="2.225319"
   inkscape:cx="183.34037"
   inkscape:cy="105.00246"
   inkscape:window-x="1912"
   inkscape:window-y="-8"
   inkscape:window-maximized="1"
   inkscape:current-layer="Lager_13"
   inkscape:document-rotation="0" />

<rect
   style="fill:#041e42;fill-opacity:1;stroke-width:0.801118"
   id="rect867"
   width="4.807878"
   height="255.82771"
   x="-0.024261856"
   y="0.14614779" /><rect
   style="fill:#97999b;fill-opacity:0.40000001"
   id="rect869"
   width="251.15024"
   height="38.353306"
   x="4.7836161"
   y="0.14614779" /><g
   aria-label="Quality"
   transform="scale(1.0317834,0.96919566)"
   id="text865"
   style="font-style:normal;font-weight:normal;font-size:27.803px;line-height:1.25;font-family:sans-serif;fill:#041e42;fill-opacity:1;stroke:none;stroke-width:0.695075"><path
     d="m 96.819151,21.249707 q 0,3.113936 -1.139923,5.477191 -1.11212,2.335452 -3.225148,3.586587 l 1.695983,2.835906 H 91.34196 l -1.139923,-1.918407 q -1.251135,0.333636 -2.724693,0.333636 -2.919315,0 -5.032343,-1.278938 -2.085225,-1.306741 -3.197345,-3.61439 -1.084317,-2.335452 -1.084317,-5.421585 0,-3.086133 1.084317,-5.393782 1.11212,-2.335452 3.197345,-3.61439 2.113028,-1.306741 5.032343,-1.306741 2.919314,0 5.004539,1.306741 2.113028,1.278938 3.225148,3.61439 1.11212,2.307649 1.11212,5.393782 z m -9.341807,8.174082 q 0.722877,0 1.556967,-0.139015 l -2.168633,-3.642193 h 2.780299 l 1.640377,2.724694 q 1.417953,-0.945302 2.168634,-2.585679 0.750681,-1.66818 0.750681,-3.809011 v -1.445756 q 0,-2.168634 -0.778484,-3.836814 -0.778484,-1.695983 -2.307649,-2.641285 -1.501362,-0.973105 -3.642192,-0.973105 -2.140831,0 -3.642193,0.973105 -1.501362,0.945302 -2.279846,2.641285 -0.778484,1.66818 -0.778484,3.836814 v 1.445756 q 0,2.168634 0.778484,3.864617 0.778484,1.66818 2.279846,2.641285 1.529165,0.945302 3.642193,0.945302 z"
     style="font-style:normal;font-variant:normal;font-weight:normal;font-stretch:normal;font-family:'Scania Sans CY';-inkscape-font-specification:'Scania Sans CY';fill:#041e42;fill-opacity:1;stroke-width:0.695075"
     id="path7094" /><path
     d="m 112.72246,16.551 v 14.568772 h -2.27985 v -1.94621 q -0.47265,1.056514 -1.61257,1.723786 -1.11212,0.667272 -2.89152,0.667272 -2.53007,0 -4.03143,-1.417953 -1.47356,-1.445756 -1.47356,-4.142647 V 16.551 h 2.39106 v 8.674536 q 0,2.252043 0.88969,3.280754 0.9175,1.028711 2.7525,1.028711 1.75159,0 2.8081,-1.056514 1.05652,-1.056514 1.05652,-3.252951 V 16.551 Z"
     style="font-style:normal;font-variant:normal;font-weight:normal;font-stretch:normal;font-family:'Scania Sans CY';-inkscape-font-specification:'Scania Sans CY';fill:#041e42;fill-opacity:1;stroke-width:0.695075"
     id="path7096" /><path
     d="m 123.28759,16.106152 q 2.97492,0 4.55969,1.39015 1.61257,1.362347 1.61257,3.669996 v 9.953474 h -2.30764 v -1.807195 q -0.58387,1.028711 -1.8072,1.640377 -1.19553,0.583863 -3.05833,0.583863 -2.58568,0 -4.14265,-1.11212 -1.52916,-1.11212 -1.52916,-3.308557 0,-2.168634 1.61257,-3.308557 1.61258,-1.167726 4.6431,-1.167726 h 4.19826 v -1.417953 q 0,-1.556968 -1.02871,-2.335452 -1.00091,-0.778484 -2.7803,-0.778484 -1.69599,0 -2.55788,0.667272 -0.86189,0.667272 -1.11212,1.723786 h -2.55788 q 0.30584,-2.113028 1.97402,-3.252951 1.66818,-1.139923 4.28166,-1.139923 z m -0.55606,13.456652 q 1.91841,0 3.11393,-0.917499 1.22334,-0.917499 1.22334,-2.530073 v -1.640377 h -4.14265 q -1.8628,0 -2.86371,0.667272 -0.9731,0.639469 -0.9731,1.723786 v 0.305833 q 0,1.195529 0.9453,1.807195 0.9731,0.583863 2.69689,0.583863 z"
     style="font-style:normal;font-variant:normal;font-weight:normal;font-stretch:normal;font-family:'Scania Sans CY';-inkscape-font-specification:'Scania Sans CY';fill:#041e42;fill-opacity:1;stroke-width:0.695075"
     id="path7098" /><path
     d="m 134.07513,10.656764 h 2.39106 v 20.463008 h -2.39106 z"
     style="font-style:normal;font-variant:normal;font-weight:normal;font-stretch:normal;font-family:'Scania Sans CY';-inkscape-font-specification:'Scania Sans CY';fill:#041e42;fill-opacity:1;stroke-width:0.695075"
     id="path7100" /><path
     d="m 141.35949,16.551 h 2.39106 v 14.568772 h -2.39106 z m 0,-5.894236 h 2.39106 v 2.947118 h -2.39106 z"
     style="font-style:normal;font-variant:normal;font-weight:normal;font-stretch:normal;font-family:'Scania Sans CY';-inkscape-font-specification:'Scania Sans CY';fill:#041e42;fill-opacity:1;stroke-width:0.695075"
     id="path7102" /><path
     d="m 151.98021,18.385998 v 7.78484 q 0,1.723786 0.61167,2.391058 0.61167,0.639469 2.05742,0.639469 h 0.9453 v 1.918407 q -0.72287,0.111212 -1.41795,0.111212 -2.41886,0 -3.50318,-1.11212 -1.08431,-1.139923 -1.08431,-3.753405 v -7.979461 h -2.6969 V 16.551 h 2.6969 v -3.753405 h 2.39105 V 16.551 h 3.61439 v 1.834998 z"
     style="font-style:normal;font-variant:normal;font-weight:normal;font-stretch:normal;font-family:'Scania Sans CY';-inkscape-font-specification:'Scania Sans CY';fill:#041e42;fill-opacity:1;stroke-width:0.695075"
     id="path7104" /><path
     d="m 171.16427,16.551 -7.4512,19.350888 h -2.44666 L 163.24042,30.813939 157.79103,16.551 h 2.55788 l 4.14264,11.232412 4.25386,-11.232412 z"
     style="font-style:normal;font-variant:normal;font-weight:normal;font-stretch:normal;font-family:'Scania Sans CY';-inkscape-font-specification:'Scania Sans CY';fill:#041e42;fill-opacity:1;stroke-width:0.695075"
     id="path7106" /></g><g
   id="g992"
   transform="matrix(0.57967194,0,0,0.58034838,58.550843,82.880635)">
	<path
   style="fill:#041e42"
   d="M 25,204.498 V 25 h 146 v 46 h 7 V 18 H 18 V 204.498 C 18,214.543 29.998,224 39.296,224 H 140 v -7 H 39.296 C 33.017,217 25,209.989 25,204.498 Z"
   id="path986" />
	<rect
   x="46"
   y="62"
   style="fill:#041e42"
   width="104"
   height="7"
   id="rect988" />
	<path
   style="fill:#041e42"
   d="m 184.607,179.844 c 9.615,-10.785 14.931,-24.525 15.05,-39.107 0.129,-15.915 -5.947,-30.928 -17.109,-42.273 C 171.385,87.119 156.473,80.8 140.558,80.67 c -0.167,-0.001 -0.331,-0.002 -0.498,-0.002 -15.729,0 -30.548,6.066 -41.773,17.111 -1.152,1.134 -2.239,2.316 -3.286,3.525 L 95.393,101 H 46 v 7 h 43.971 c -6.069,9.391 -9.383,20.316 -9.476,31.769 -0.001,0.077 0.004,0.154 0.004,0.231 H 46 v 7 h 34.885 c 1.477,13.191 7.264,25.434 16.717,35.042 11.161,11.346 26.073,17.665 41.988,17.794 0.167,10e-4 0.331,0.002 0.498,0.002 14.719,0 28.643,-5.312 39.569,-15.046 l 53.003,53.179 4.957,-4.941 z m -7.653,-2.108 c -10.013,9.852 -23.275,15.178 -37.308,15.1 -14.045,-0.113 -27.205,-5.69 -37.054,-15.703 -9.85,-10.012 -15.211,-23.262 -15.097,-37.308 0.114,-14.046 5.69,-27.206 15.701,-37.058 9.906,-9.748 22.983,-15.101 36.865,-15.101 0.146,0 0.293,0.001 0.439,0.002 14.045,0.114 27.206,5.691 37.057,15.703 9.852,10.013 15.214,23.262 15.1,37.308 -0.114,14.046 -5.691,27.207 -15.703,37.057 z"
   id="path990" />
</g></svg>
