<?xml version="1.0" encoding="UTF-8" standalone="no"?>
<svg
   xmlns:dc="http://purl.org/dc/elements/1.1/"
   xmlns:cc="http://creativecommons.org/ns#"
   xmlns:rdf="http://www.w3.org/1999/02/22-rdf-syntax-ns#"
   xmlns:svg="http://www.w3.org/2000/svg"
   xmlns="http://www.w3.org/2000/svg"
   xmlns:sodipodi="http://sodipodi.sourceforge.net/DTD/sodipodi-0.dtd"
   xmlns:inkscape="http://www.inkscape.org/namespaces/inkscape"
   version="1.1"
   id="Lager_13"
   x="0px"
   y="0px"
   viewBox="0 0 256 256"
   style="enable-background:new 0 0 256 256;"
   xml:space="preserve"
   sodipodi:docname="sustaintability_vetor.svg"
   inkscape:version="1.0.2-2 (e86c870879, 2021-01-15)"><metadata
   id="metadata861"><rdf:RDF><cc:Work
       rdf:about=""><dc:format>image/svg+xml</dc:format><dc:type
         rdf:resource="http://purl.org/dc/dcmitype/StillImage" /><dc:title /></cc:Work></rdf:RDF></metadata><defs
   id="defs859" /><sodipodi:namedview
   pagecolor="#ffffff"
   bordercolor="#666666"
   borderopacity="1"
   objecttolerance="10"
   gridtolerance="10"
   guidetolerance="10"
   inkscape:pageopacity="0"
   inkscape:pageshadow="2"
   inkscape:window-width="1920"
   inkscape:window-height="1017"
   id="namedview857"
   showgrid="false"
   inkscape:zoom="2.1664887"
   inkscape:cx="183.34037"
   inkscape:cy="105.00246"
   inkscape:window-x="1912"
   inkscape:window-y="-8"
   inkscape:window-maximized="1"
   inkscape:current-layer="Lager_13"
   inkscape:document-rotation="0" />
<g
   id="g854"
   transform="matrix(0.64562953,0,0,0.64134173,48.490242,66.162458)">
	<path
   style="fill:#041e42"
   d="m 184.309,184.697 c -15.62,14.523 -35.977,22.522 -57.319,22.522 -0.542,0 -1.085,-0.023 -1.628,-0.033 -2.01,-0.039 -4.019,-0.143 -6.02,-0.323 l 23.044,-18.332 -9.479,-1.059 -27.039,21.502 21.503,27.039 9.481,1.097 -18.546,-23.318 c 1.794,0.169 3.594,0.295 5.397,0.36 1.095,0.039 2.191,0.066 3.286,0.066 23.117,0 45.166,-8.664 62.085,-24.396 16.83,-15.649 27.071,-36.842 28.836,-59.675 l -6.979,-0.539 c -1.628,21.077 -11.083,40.64 -26.622,55.089 z"
   id="path848" />
	<path
   style="fill:#041e42"
   d="m 126.99,38.827 c 37.077,0 69.158,23.946 80.167,58.352 0.581,1.816 1.087,3.669 1.548,5.542 l -25.906,-15.169 2.434,9.223 29.809,17.46 17.458,-29.81 -2.397,-9.238 -14.762,25.209 c -0.457,-1.8 -0.951,-3.583 -1.511,-5.335 -11.919,-37.284 -46.673,-63.234 -86.84,-63.234 -15.823,0 -31.412,4.117 -45.083,11.905 l 3.465,6.082 C 97.989,42.627 112.38,38.827 126.99,38.827 Z"
   id="path850" />
	<path
   style="fill:#041e42"
   d="m 42.793,123.023 c 0,-17.968 5.615,-35.117 16.001,-49.401 1.259,-1.731 2.605,-3.407 4.002,-5.05 l -0.012,29.939 6.731,-6.758 0.019,-34.545 -34.546,-0.018 -6.763,6.734 29.325,0.012 c -1.115,1.307 -2.19,2.64 -3.223,3.998 -12.006,15.78 -18.534,34.953 -18.534,55.087 0,17.407 4.922,34.332 14.234,48.945 9.063,14.222 21.847,25.646 36.969,33.036 l 3.073,-6.289 C 60.909,184.464 42.793,155.46 42.793,123.023 Z"
   id="path852" />
</g>
<rect
   style="fill:#2c5234;fill-opacity:1;stroke-width:0.801118"
   id="rect867"
   width="4.807878"
   height="255.82771"
   x="-0.024261856"
   y="0.14614779" /><rect
   style="fill:#97999b;fill-opacity:0.40000001"
   id="rect869"
   width="251.15024"
   height="38.353306"
   x="4.7836161"
   y="0.14614779" /><g
   aria-label="Sustainability"
   transform="scale(1.0317834,0.96919566)"
   id="text865"
   style="font-style:normal;font-weight:normal;font-size:27.803px;line-height:1.25;font-family:sans-serif;fill:#041e42;fill-opacity:1;stroke:none;stroke-width:0.695075"><path
     d="m 45.881402,31.56462 q -4.17045,0 -6.227872,-1.807195 -2.029619,-1.834998 -2.057422,-4.921131 h 2.557876 q 0.08341,2.001816 1.473559,3.308557 1.39015,1.278938 4.281662,1.278938 5.226964,0 5.226964,-3.586587 v -0.222424 q 0,-1.334544 -0.973105,-2.029619 -0.945302,-0.722878 -3.197345,-1.223332 l -3.113936,-0.695075 q -2.168634,-0.472651 -3.419769,-1.084317 -1.223332,-0.611666 -1.834998,-1.584771 -0.583863,-0.973105 -0.583863,-2.530073 0,-1.640377 0.917499,-2.891512 0.917499,-1.251135 2.585679,-1.94621 1.66818,-0.695075 3.781208,-0.695075 2.613482,0 4.365071,0.778484 1.779392,0.778484 2.641285,2.113028 0.861893,1.306741 0.917499,2.919315 h -2.585679 q -0.222424,-1.584771 -1.501362,-2.613482 -1.278938,-1.056514 -3.920223,-1.056514 -2.335452,0 -3.530981,0.945302 -1.167726,0.917499 -1.167726,2.307649 V 16.551 q 0,1.195529 0.917499,1.862801 0.917499,0.639469 3.05833,1.11212 l 3.113936,0.695075 q 3.225148,0.722878 4.615298,1.94621 1.417953,1.223332 1.417953,3.586587 0,2.808103 -2.001816,4.309465 -2.001816,1.501362 -5.755221,1.501362 z"
     style="font-style:normal;font-variant:normal;font-weight:normal;font-stretch:normal;font-family:'Scania Sans CY';-inkscape-font-specification:'Scania Sans CY';fill:#041e42;fill-opacity:1;stroke-width:0.695075"
     id="path7741" /><path
     d="m 69.958752,16.551 v 14.568772 h -2.279846 v -1.94621 q -0.472651,1.056514 -1.612574,1.723786 -1.11212,0.667272 -2.891512,0.667272 -2.530073,0 -4.031435,-1.417953 -1.473559,-1.445756 -1.473559,-4.142647 V 16.551 h 2.391058 v 8.674536 q 0,2.252043 0.889696,3.280754 0.917499,1.028711 2.752497,1.028711 1.751589,0 2.808103,-1.056514 1.056514,-1.056514 1.056514,-3.252951 V 16.551 Z"
     style="font-style:normal;font-variant:normal;font-weight:normal;font-stretch:normal;font-family:'Scania Sans CY';-inkscape-font-specification:'Scania Sans CY';fill:#041e42;fill-opacity:1;stroke-width:0.695075"
     id="path7743" /><path
     d="m 80.329266,31.56462 q -3.280754,0 -4.921131,-1.306741 -1.612574,-1.306741 -1.66818,-3.558784 h 2.446664 q 0.08341,1.278938 1.11212,2.113028 1.028711,0.806287 3.030527,0.806287 3.725602,0 3.725602,-2.335452 v -0.194621 q 0,-0.889696 -0.611666,-1.306741 -0.611666,-0.444848 -2.140831,-0.778484 l -2.669088,-0.55606 q -2.391058,-0.500454 -3.503178,-1.39015 -1.084317,-0.917499 -1.084317,-2.641285 0,-1.195529 0.695075,-2.168634 0.695075,-0.973105 2.001816,-1.529165 1.306741,-0.583863 3.086133,-0.583863 2.057422,0 3.447572,0.583863 1.417953,0.583863 2.113028,1.556968 0.695075,0.973105 0.722878,2.113028 h -2.391058 q -0.389242,-2.307649 -3.948026,-2.307649 -1.612574,0 -2.474467,0.611666 -0.861893,0.583863 -0.861893,1.529165 v 0.250227 q 0,0.83409 0.639469,1.251135 0.667272,0.417045 2.168634,0.722878 l 2.613482,0.55606 q 2.418861,0.500454 3.503178,1.445756 1.084317,0.945302 1.084317,2.669088 0,2.029619 -1.584771,3.252951 -1.584771,1.195529 -4.531889,1.195529 z"
     style="font-style:normal;font-variant:normal;font-weight:normal;font-stretch:normal;font-family:'Scania Sans CY';-inkscape-font-specification:'Scania Sans CY';fill:#041e42;fill-opacity:1;stroke-width:0.695075"
     id="path7745" /><path
     d="m 93.56348,18.385998 v 7.78484 q 0,1.723786 0.611666,2.391058 0.611666,0.639469 2.057422,0.639469 h 0.945302 v 1.918407 q -0.722878,0.111212 -1.417953,0.111212 -2.418861,0 -3.503178,-1.11212 -1.084317,-1.139923 -1.084317,-3.753405 v -7.979461 h -2.69689 V 16.551 h 2.69689 V 12.797595 H 93.56348 V 16.551 h 3.61439 v 1.834998 z"
     style="font-style:normal;font-variant:normal;font-weight:normal;font-stretch:normal;font-family:'Scania Sans CY';-inkscape-font-specification:'Scania Sans CY';fill:#041e42;fill-opacity:1;stroke-width:0.695075"
     id="path7747" /><path
     d="m 106.63088,16.106152 q 2.97492,0 4.55969,1.39015 1.61258,1.362347 1.61258,3.669996 v 9.953474 h -2.30765 v -1.807195 q -0.58386,1.028711 -1.8072,1.640377 -1.19553,0.583863 -3.05833,0.583863 -2.58568,0 -4.14264,-1.11212 -1.529169,-1.11212 -1.529169,-3.308557 0,-2.168634 1.612579,-3.308557 1.61257,-1.167726 4.6431,-1.167726 h 4.19825 v -1.417953 q 0,-1.556968 -1.02871,-2.335452 -1.00091,-0.778484 -2.7803,-0.778484 -1.69598,0 -2.55788,0.667272 -0.86189,0.667272 -1.11212,1.723786 h -2.55787 q 0.30583,-2.113028 1.97401,-3.252951 1.66818,-1.139923 4.28166,-1.139923 z m -0.55606,13.456652 q 1.91841,0 3.11394,-0.917499 1.22333,-0.917499 1.22333,-2.530073 v -1.640377 h -4.14265 q -1.8628,0 -2.86371,0.667272 -0.9731,0.639469 -0.9731,1.723786 v 0.305833 q 0,1.195529 0.9453,1.807195 0.97311,0.583863 2.69689,0.583863 z"
     style="font-style:normal;font-variant:normal;font-weight:normal;font-stretch:normal;font-family:'Scania Sans CY';-inkscape-font-specification:'Scania Sans CY';fill:#041e42;fill-opacity:1;stroke-width:0.695075"
     id="path7749" /><path
     d="m 117.41842,16.551 h 2.39106 v 14.568772 h -2.39106 z m 0,-5.894236 h 2.39106 v 2.947118 h -2.39106 z"
     style="font-style:normal;font-variant:normal;font-weight:normal;font-stretch:normal;font-family:'Scania Sans CY';-inkscape-font-specification:'Scania Sans CY';fill:#041e42;fill-opacity:1;stroke-width:0.695075"
     id="path7751" /><path
     d="m 131.57012,16.106152 q 2.50227,0 4.03144,1.529165 1.55697,1.501362 1.55697,4.114844 v 9.369611 h -2.39106 v -8.646733 q 0,-2.140831 -1.00091,-3.225148 -0.9731,-1.11212 -2.83591,-1.11212 -1.83499,0 -2.8359,1.11212 -1.00091,1.084317 -1.00091,3.225148 v 8.646733 h -2.39106 V 16.551 h 2.27985 v 2.057422 q 0.52826,-1.11212 1.66818,-1.807195 1.16772,-0.695075 2.91931,-0.695075 z"
     style="font-style:normal;font-variant:normal;font-weight:normal;font-stretch:normal;font-family:'Scania Sans CY';-inkscape-font-specification:'Scania Sans CY';fill:#041e42;fill-opacity:1;stroke-width:0.695075"
     id="path7753" /><path
     d="m 147.44559,16.106152 q 2.97492,0 4.55969,1.39015 1.61257,1.362347 1.61257,3.669996 v 9.953474 h -2.30765 v -1.807195 q -0.58386,1.028711 -1.80719,1.640377 -1.19553,0.583863 -3.05833,0.583863 -2.58568,0 -4.14265,-1.11212 -1.52916,-1.11212 -1.52916,-3.308557 0,-2.168634 1.61257,-3.308557 1.61257,-1.167726 4.6431,-1.167726 h 4.19825 v -1.417953 q 0,-1.556968 -1.02871,-2.335452 -1.0009,-0.778484 -2.7803,-0.778484 -1.69598,0 -2.55787,0.667272 -0.8619,0.667272 -1.11212,1.723786 h -2.55788 q 0.30583,-2.113028 1.97401,-3.252951 1.66818,-1.139923 4.28167,-1.139923 z m -0.55606,13.456652 q 1.9184,0 3.11393,-0.917499 1.22333,-0.917499 1.22333,-2.530073 v -1.640377 h -4.14264 q -1.8628,0 -2.86371,0.667272 -0.97311,0.639469 -0.97311,1.723786 v 0.305833 q 0,1.195529 0.94531,1.807195 0.9731,0.583863 2.69689,0.583863 z"
     style="font-style:normal;font-variant:normal;font-weight:normal;font-stretch:normal;font-family:'Scania Sans CY';-inkscape-font-specification:'Scania Sans CY';fill:#041e42;fill-opacity:1;stroke-width:0.695075"
     id="path7755" /><path
     d="m 165.29509,16.106152 q 2.02962,0 3.53098,0.973105 1.50136,0.973105 2.30765,2.752497 0.80628,1.751589 0.80628,4.003632 0,2.252043 -0.80628,4.003632 -0.80629,1.751589 -2.30765,2.724694 -1.50136,0.973105 -3.53098,0.973105 -1.58477,0 -2.80811,-0.583863 -1.19553,-0.583863 -1.97401,-1.695983 v 1.862801 h -2.27985 V 10.656764 h 2.39106 v 7.562416 q 1.64038,-2.113028 4.67091,-2.113028 z m 4.17045,7.395598 q 0,-2.474467 -1.22334,-3.920223 -1.19552,-1.445756 -3.30855,-1.445756 -1.94621,0 -3.14174,1.139923 -1.16773,1.139923 -1.16773,3.113936 v 2.835906 q 0,1.918407 1.16773,3.113936 1.19553,1.167726 3.14174,1.167726 2.11303,0 3.30855,-1.445756 1.22334,-1.473559 1.22334,-3.948026 z"
     style="font-style:normal;font-variant:normal;font-weight:normal;font-stretch:normal;font-family:'Scania Sans CY';-inkscape-font-specification:'Scania Sans CY';fill:#041e42;fill-opacity:1;stroke-width:0.695075"
     id="path7757" /><path
     d="m 175.83241,16.551 h 2.39105 v 14.568772 h -2.39105 z m 0,-5.894236 h 2.39105 v 2.947118 h -2.39105 z"
     style="font-style:normal;font-variant:normal;font-weight:normal;font-stretch:normal;font-family:'Scania Sans CY';-inkscape-font-specification:'Scania Sans CY';fill:#041e42;fill-opacity:1;stroke-width:0.695075"
     id="path7759" /><path
     d="m 183.11677,10.656764 h 2.39106 v 20.463008 h -2.39106 z"
     style="font-style:normal;font-variant:normal;font-weight:normal;font-stretch:normal;font-family:'Scania Sans CY';-inkscape-font-specification:'Scania Sans CY';fill:#041e42;fill-opacity:1;stroke-width:0.695075"
     id="path7761" /><path
     d="m 190.40113,16.551 h 2.39106 v 14.568772 h -2.39106 z m 0,-5.894236 h 2.39106 v 2.947118 h -2.39106 z"
     style="font-style:normal;font-variant:normal;font-weight:normal;font-stretch:normal;font-family:'Scania Sans CY';-inkscape-font-specification:'Scania Sans CY';fill:#041e42;fill-opacity:1;stroke-width:0.695075"
     id="path7763" /><path
     d="m 201.02185,18.385998 v 7.78484 q 0,1.723786 0.61167,2.391058 0.61167,0.639469 2.05742,0.639469 h 0.9453 v 1.918407 q -0.72287,0.111212 -1.41795,0.111212 -2.41886,0 -3.50318,-1.11212 -1.08431,-1.139923 -1.08431,-3.753405 v -7.979461 h -2.69689 V 16.551 h 2.69689 v -3.753405 h 2.39105 V 16.551 h 3.61439 v 1.834998 z"
     style="font-style:normal;font-variant:normal;font-weight:normal;font-stretch:normal;font-family:'Scania Sans CY';-inkscape-font-specification:'Scania Sans CY';fill:#041e42;fill-opacity:1;stroke-width:0.695075"
     id="path7765" /><path
     d="m 220.20592,16.551 -7.45121,19.350888 h -2.44666 L 212.28206,30.813939 206.83267,16.551 h 2.55788 L 213.5332,27.783412 217.78705,16.551 Z"
     style="font-style:normal;font-variant:normal;font-weight:normal;font-stretch:normal;font-family:'Scania Sans CY';-inkscape-font-specification:'Scania Sans CY';fill:#041e42;fill-opacity:1;stroke-width:0.695075"
     id="path7767" /></g></svg>
